<svg xmlns="http://www.w3.org/2000/svg" viewBox="0 0 24 24" fill="currentColor"><path d="M11.9999 0C5.3725 0 0 5.3725 0 11.9999c0 6.6275 5.3725 12.0001 11.9999 12.0001C18.6275 24 24 18.6274 24 11.9999 24 5.3725 18.6275 0 11.9999 0zm-2.413 6.9817h4.4415c1.6501 0 2.8404 1.1315 2.8404 2.5806 0 1.0729-.645 1.9436-1.6206 2.3074 1.2198.3344 2.0022 1.2935 2.0022 2.4836 0 1.6501-1.2788 2.8699-3.0468 2.8699H9.5869V6.9817zm1.9436 4.1661h2.1786c.7234 0 1.2199-.4376 1.2199-1.0729 0-.6353-.4965-1.0729-1.2199-1.0729H11.53v2.1458zm0 4.2545h2.4543c.7824 0 1.3294-.4671 1.3294-1.1905 0-.7234-.547-1.1905-1.3294-1.1905H11.53v2.381z"/></svg>
