<svg xmlns="http://www.w3.org/2000/svg" viewBox="0 0 24 24" fill="currentColor"><path fill-rule="evenodd" clip-rule="evenodd" d="M12 24C18.6274 24 24 18.6274 24 12C24 5.37258 18.6274 0 12 0C5.37258 0 0 5.37258 0 12C0 18.6274 5.37258 24 12 24ZM12 4.8C8.02355 4.8 4.8 8.02355 4.8 12C4.8 15.9765 8.02355 19.2 12 19.2C15.3813 19.2 18.2267 16.9988 19.0905 13.9636H15.5636C14.8545 15.0982 13.5927 15.8545 12.1527 15.8545C9.97091 15.8545 8.21818 14.0836 8.21818 12C8.21818 9.91636 9.97091 8.14545 12.1527 8.14545C13.5927 8.14545 14.8545 8.90182 15.5636 10.0364H19.0905C18.2267 7.00124 15.3813 4.8 12 4.8Z"/></svg>
